<?xml version="1.0" encoding="utf-8"?>
<!-- Generator: Adobe Illustrator 24.0.0, SVG Export Plug-In . SVG Version: 6.00 Build 0)  -->
<svg version="1.1" id="Layer_1" xmlns="http://www.w3.org/2000/svg" xmlns:xlink="http://www.w3.org/1999/xlink" x="0px" y="0px"
	 viewBox="0 0 649.4 182.6" style="enable-background:new 0 0 649.4 182.6;" xml:space="preserve">
<style type="text/css">
	.st0{fill:#187C6D;}
	.st1{fill:#09333D;}
</style>
<g>
	<g>
		<g>
			<polygon class="st0" points="83.2,115.6 83.8,114.8 99.6,114.8 104.3,109.2 104.3,98.8 55.1,98.8 28.1,131.2 28.1,145.4 
				57.8,145.4 83.2,115.5 			"/>
			<polygon class="st1" points="119.2,122.2 112.9,128.3 93.3,128.3 80,145.4 92.4,145.4 136.1,145.4 136.4,145.4 136.4,78.1 
				119.2,98.7 			"/>
			<polygon class="st1" points="45.2,60.4 51.5,54.3 71.1,54.3 84.4,37.2 72.1,37.2 28.4,37.2 28,37.2 28,104.5 45.2,83.9 			"/>
			<polygon class="st0" points="93.7,52.2 88.6,58.3 80.7,67.8 64.9,67.8 60.3,73.4 60.3,83.8 109.4,83.8 136.4,51.4 136.4,37.2 
				106.6,37.2 			"/>
		</g>
	</g>
	<g>
		<g>
			<path class="st1" d="M178,94.7h34.1v8.8H165v-6.9l32.8-49.8h-32.6V38h45.7v6.6L178,94.7z"/>
			<path class="st1" d="M267.2,74.1h-28.6v20.7h33.2v8.8h-44.1V38.1h43.8v8.8h-32.9v18.5h28.6V74.1z"/>
			<path class="st1" d="M325.3,74.1h-28.6v20.7h33.2v8.8h-44.1V38.1h43.8v8.8h-32.9v18.5h28.6V74.1z"/>
			<path class="st1" d="M354.8,76.4v27.1h-10.9V38.1H368c7.3,0,13,1.6,16.9,4.9c4,3.3,6,8,6,14.1c0,3.4-0.9,6.3-2.6,8.7
				c-1.8,2.4-4.3,4.4-7.7,5.9c3.7,1.2,6.3,3.1,8,5.7c1.6,2.6,2.4,5.9,2.4,9.8v5.4c0,1.9,0.2,3.8,0.7,5.6c0.5,1.8,1.3,3.2,2.4,4.2v1
				h-11.2c-1.2-1-2-2.5-2.3-4.7c-0.3-2.1-0.5-4.2-0.5-6.2v-5.3c0-3.4-1-6-2.9-8s-4.6-3-7.9-3h-14.5V76.4z M354.8,67.6h12.7
				c4.4,0,7.6-0.8,9.6-2.5c2-1.7,3-4.2,3-7.7c0-3.3-1-5.9-3-7.7c-2-1.9-5-2.8-9-2.8h-13.3L354.8,67.6L354.8,67.6z"/>
			<path class="st1" d="M445,86.7c0-2.7-1-4.9-3-6.7c-2-1.7-5.6-3.3-10.7-4.7c-7.3-1.9-12.9-4.5-16.9-7.6c-3.9-3.2-5.9-7.3-5.9-12.4
				c0-5.3,2.2-9.6,6.5-13c4.4-3.4,10-5.1,16.9-5.1c7.2,0,13,1.9,17.3,5.8s6.5,8.5,6.3,13.9l-0.1,0.3h-10.5c0-3.4-1.1-6.1-3.4-8.2
				c-2.3-2.1-5.5-3.1-9.7-3.1c-4,0-7,0.9-9.2,2.6c-2.1,1.7-3.2,4-3.2,6.7c0,2.5,1.2,4.5,3.5,6.2c2.3,1.6,6.2,3.2,11.5,4.7
				c7,1.9,12.4,4.5,16,7.8c3.7,3.3,5.5,7.6,5.5,12.7c0,5.4-2.2,9.8-6.5,13c-4.4,3.2-10.1,4.8-17.2,4.8c-6.8,0-12.8-1.8-18-5.5
				c-5.2-3.6-7.7-8.6-7.5-14.9l0.1-0.3h10.5c0,4,1.4,7,4.1,8.9c2.8,2,6.3,2.9,10.7,2.9c4,0,7.2-0.8,9.4-2.4
				C443.9,91.6,445,89.4,445,86.7z"/>
			<path class="st1" d="M483.7,103.5h-10.9V38.1h10.9V103.5z"/>
			<path class="st1" d="M552.2,94.7c-1.7,2.5-4.6,4.7-8.6,6.8c-4,2-9.1,3-15.3,3c-7.9,0-14.4-2.5-19.4-7.5c-5.1-5-7.6-11.4-7.6-19.3
				V64c0-7.9,2.4-14.4,7.2-19.3c4.8-5,11-7.5,18.6-7.5c7.7,0,13.7,1.9,17.9,5.7c4.3,3.8,6.4,8.7,6.5,14.8l-0.1,0.3h-10.3
				c-0.2-3.6-1.5-6.5-3.8-8.7s-5.7-3.3-10.1-3.3c-4.5,0-8.2,1.7-10.9,5.1c-2.8,3.4-4.2,7.7-4.2,12.9v13.7c0,5.3,1.5,9.6,4.5,13
				s6.9,5.1,11.7,5.1c3.4,0,6.2-0.4,8.3-1.2c2.1-0.8,3.7-1.7,4.6-2.8V78.4h-13v-8.2h23.9L552.2,94.7L552.2,94.7z"/>
			<path class="st1" d="M621.4,103.5h-10.9l-29-47.7l-0.3,0.1v47.7h-10.9V38.1h10.9l29,47.7l0.3-0.1V38.1h10.9V103.5z"/>
		</g>
		<g>
			<path class="st0" d="M174.2,145.4c-1.2,0-2.3-0.2-3.4-0.7c-1.1-0.5-2.1-1.2-2.9-2c-0.8-0.9-1.5-2-2-3.2c-0.5-1.3-0.7-2.7-0.7-4.3
				s0.2-3.1,0.7-4.4c0.5-1.3,1.2-2.4,2-3.4c0.9-0.9,1.9-1.7,3-2.2c1.2-0.5,2.4-0.8,3.7-0.8c1,0,1.9,0.1,2.7,0.4
				c0.8,0.2,1.6,0.6,2.3,1l0.6-1h1.1l0.1,7.2h-1.2c-0.2-0.7-0.4-1.5-0.7-2.3s-0.7-1.5-1.1-2.1c-0.5-0.6-1-1.1-1.6-1.5
				s-1.3-0.5-2.1-0.5c-0.9,0-1.8,0.2-2.6,0.6s-1.5,1-2,1.8c-0.5,0.8-1,1.7-1.3,2.9s-0.5,2.5-0.5,4c0,1.3,0.2,2.5,0.5,3.5
				c0.3,1.1,0.8,2,1.4,2.8c0.6,0.8,1.3,1.4,2.1,1.9s1.7,0.7,2.8,0.7c0.8,0,1.5-0.1,2.1-0.4c0.6-0.2,1.2-0.6,1.7-1s0.9-0.9,1.2-1.4
				s0.7-1.1,0.9-1.7l1.1,0.5c-0.8,2-1.9,3.4-3.2,4.3C177.6,144.9,176,145.4,174.2,145.4z"/>
			<path class="st0" d="M223.9,144.9h-5.4c-1.2-1.9-2.3-3.5-3.2-4.9s-2-2.8-3.1-4.2H210v6.4c0,0.3,0.1,0.6,0.2,0.9
				c0.1,0.2,0.3,0.4,0.7,0.6c0.2,0.1,0.5,0.1,0.9,0.2c0.4,0.1,0.8,0.1,1.1,0.1v1h-8.5v-1c0.2,0,0.6-0.1,1-0.1s0.7-0.1,0.9-0.2
				c0.3-0.1,0.5-0.3,0.6-0.5s0.2-0.5,0.2-0.9v-14.5c0-0.3,0-0.6-0.1-0.9s-0.3-0.4-0.7-0.6c-0.2-0.1-0.5-0.2-0.9-0.2
				c-0.4-0.1-0.7-0.1-1-0.1v-1h9.3c0.8,0,1.6,0.1,2.4,0.3s1.4,0.5,2,0.8c0.6,0.4,1.1,0.9,1.4,1.5c0.3,0.6,0.5,1.3,0.5,2.2
				c0,0.8-0.1,1.5-0.4,2.1c-0.2,0.6-0.6,1.1-1,1.5s-0.9,0.8-1.5,1.1s-1.2,0.5-2,0.8c1,1.3,1.8,2.4,2.5,3.3c0.7,0.9,1.5,2,2.4,3.3
				c0.4,0.6,0.8,1,1.1,1.3s0.7,0.5,1,0.7c0.2,0.1,0.6,0.2,0.9,0.3c0.4,0.1,0.7,0.1,0.9,0.1L223.9,144.9L223.9,144.9z M216.4,129.9
				c0-1.2-0.3-2.2-1-2.9c-0.7-0.7-1.7-1.1-3-1.1H210v8.6h1.9c1.3,0,2.4-0.4,3.3-1.2C216,132.5,216.4,131.4,216.4,129.9z"/>
			<path class="st0" d="M261.9,139l-0.4,5.9h-16.7v-1c0.3,0,0.7-0.1,1.1-0.1c0.5-0.1,0.8-0.1,0.9-0.2c0.3-0.1,0.5-0.3,0.6-0.6
				c0.1-0.2,0.2-0.5,0.2-0.9v-14.4c0-0.3-0.1-0.6-0.2-0.8s-0.3-0.4-0.7-0.6c-0.3-0.1-0.6-0.2-1-0.3c-0.4-0.1-0.8-0.2-1-0.2v-1h15.5
				v4.8h-1.1c-0.2-0.7-0.6-1.5-1.2-2.3c-0.6-0.8-1.2-1.2-1.8-1.3c-0.3,0-0.6-0.1-1-0.1s-0.9,0-1.4,0h-3.2v8h2.3
				c0.7,0,1.3-0.1,1.6-0.2c0.3-0.1,0.6-0.4,0.9-0.7c0.2-0.3,0.4-0.6,0.5-1.1s0.2-0.9,0.3-1.3h1.1v7.9h-1.1c0-0.5-0.1-0.9-0.3-1.4
				s-0.3-0.9-0.5-1.1c-0.3-0.4-0.6-0.6-1-0.7c-0.4-0.1-0.9-0.2-1.5-0.2h-2.3v6c0,0.6,0,1.1,0.1,1.4s0.2,0.6,0.5,0.8
				c0.2,0.2,0.6,0.3,1,0.3c0.4,0.1,1,0.1,1.8,0.1c0.3,0,0.7,0,1.2,0s0.9,0,1.3-0.1c0.4,0,0.7-0.1,1.1-0.2c0.4-0.1,0.7-0.2,0.8-0.4
				c0.4-0.5,0.9-1.1,1.4-2.1c0.5-0.9,0.8-1.6,0.9-2h1.3V139z"/>
			<path class="st0" d="M303,144.9h-8.3v-1c0.7,0,1.3-0.1,1.8-0.3c0.5-0.1,0.7-0.3,0.7-0.5c0-0.1,0-0.2,0-0.3s0-0.2-0.1-0.3
				l-1.7-4.5h-7c-0.3,0.7-0.5,1.2-0.6,1.7c-0.2,0.5-0.3,0.9-0.4,1.4c-0.1,0.4-0.2,0.7-0.3,1c0,0.3-0.1,0.5-0.1,0.6
				c0,0.4,0.3,0.7,0.9,0.9s1.3,0.3,2,0.4v1h-7.6v-1c0.2,0,0.6-0.1,0.9-0.2c0.4-0.1,0.7-0.2,0.9-0.4c0.4-0.3,0.7-0.5,0.9-0.8
				c0.2-0.3,0.4-0.7,0.6-1.2c1-2.5,2.1-5.3,3.3-8.5c1.2-3.1,2.3-5.9,3.3-8.4h1.1l6.7,17.3c0.1,0.4,0.3,0.7,0.5,0.9s0.4,0.4,0.7,0.7
				c0.2,0.1,0.5,0.2,0.8,0.3s0.6,0.1,0.9,0.1v1.1H303z M295,136.7l-3-7.8l-3,7.8H295z"/>
			<path class="st0" d="M340.5,130.3h-1c-0.1-0.3-0.2-0.7-0.5-1.2s-0.5-0.9-0.7-1.3c-0.3-0.4-0.6-0.8-0.9-1.1
				c-0.3-0.3-0.7-0.5-1-0.6c-0.3,0-0.7-0.1-1.1-0.1s-0.9,0-1.2,0h-0.8v16c0,0.3,0.1,0.6,0.2,0.9c0.1,0.3,0.4,0.5,0.7,0.6
				c0.2,0.1,0.5,0.2,1.1,0.3c0.5,0.1,1,0.2,1.3,0.2v1H327v-1c0.3,0,0.7-0.1,1.2-0.1c0.5-0.1,0.9-0.1,1.1-0.2
				c0.3-0.1,0.5-0.3,0.7-0.5c0.1-0.2,0.2-0.5,0.2-0.9v-16.2h-0.8c-0.3,0-0.7,0-1.1,0s-0.8,0-1.2,0.1c-0.3,0-0.6,0.2-1,0.6
				c-0.3,0.3-0.6,0.7-0.9,1.1c-0.3,0.4-0.5,0.9-0.7,1.4s-0.4,0.9-0.5,1.2h-1v-5.4h17.5L340.5,130.3L340.5,130.3z"/>
			<path class="st0" d="M371.2,144.9h-9v-1c0.3,0,0.6,0,1.1-0.1s0.8-0.1,1-0.2c0.3-0.1,0.5-0.3,0.7-0.5c0.1-0.2,0.2-0.5,0.2-0.9
				v-14.5c0-0.3-0.1-0.6-0.2-0.8c-0.1-0.2-0.3-0.4-0.7-0.6c-0.3-0.1-0.6-0.2-1.1-0.3s-0.8-0.2-1.1-0.2v-1h9v1c-0.3,0-0.6,0-1,0.1
				s-0.8,0.1-1.1,0.2c-0.4,0.1-0.6,0.3-0.7,0.6c-0.1,0.3-0.2,0.5-0.2,0.8V142c0,0.3,0.1,0.6,0.2,0.8s0.4,0.4,0.7,0.6
				c0.2,0.1,0.5,0.2,1,0.2s0.8,0.1,1.1,0.1v1.2H371.2z"/>
			<path class="st0" d="M412.6,125.8c-0.2,0-0.5,0.1-0.9,0.2c-0.3,0.1-0.6,0.2-0.9,0.4c-0.3,0.2-0.6,0.5-0.8,0.8
				c-0.2,0.3-0.4,0.7-0.6,1.1c-0.6,1.5-1.6,3.8-2.8,7s-2.6,6.5-3.9,9.9h-1.2c-1.4-3.7-2.7-7.2-3.9-10.6c-1.3-3.4-2.1-5.7-2.6-6.9
				c-0.1-0.3-0.3-0.5-0.5-0.8c-0.2-0.2-0.4-0.4-0.7-0.6c-0.3-0.2-0.5-0.3-0.8-0.4s-0.6-0.1-0.9-0.1v-1h8.3v1c-0.7,0-1.3,0.1-1.8,0.2
				s-0.7,0.3-0.7,0.6c0,0.1,0,0.2,0.1,0.4c0,0.1,0.1,0.3,0.1,0.3c0.3,0.9,0.9,2.4,1.7,4.5s1.9,5.1,3.3,8.9c0.7-1.7,1.5-3.8,2.5-6.2
				c0.9-2.4,1.6-4,1.9-4.9s0.5-1.5,0.5-1.8c0.1-0.3,0.1-0.6,0.1-0.8c0-0.2-0.1-0.4-0.3-0.5c-0.2-0.1-0.5-0.3-0.8-0.4
				s-0.6-0.2-0.9-0.2s-0.6-0.1-1-0.1v-1h7.5L412.6,125.8L412.6,125.8z"/>
			<path class="st0" d="M450.6,139l-0.4,5.9h-16.7v-1c0.3,0,0.7-0.1,1.1-0.1c0.5-0.1,0.8-0.1,0.9-0.2c0.3-0.1,0.5-0.3,0.6-0.6
				c0.1-0.2,0.2-0.5,0.2-0.9v-14.4c0-0.3-0.1-0.6-0.2-0.8c-0.1-0.2-0.3-0.4-0.7-0.6c-0.3-0.1-0.6-0.2-1-0.3c-0.4-0.1-0.8-0.2-1-0.2
				v-1h15.5v4.8h-1.1c-0.2-0.7-0.6-1.5-1.2-2.3c-0.6-0.8-1.2-1.2-1.8-1.3c-0.3,0-0.6-0.1-1-0.1s-0.9,0-1.4,0h-3.2v8h2.3
				c0.7,0,1.3-0.1,1.6-0.2s0.6-0.4,0.9-0.7c0.2-0.3,0.4-0.6,0.5-1.1s0.2-0.9,0.3-1.3h1.1v7.9H445c0-0.5-0.1-0.9-0.3-1.4
				c-0.2-0.5-0.3-0.9-0.5-1.1c-0.3-0.4-0.6-0.6-1-0.7c-0.4-0.1-0.9-0.2-1.5-0.2h-2.3v6c0,0.6,0,1.1,0.1,1.4s0.3,0.6,0.5,0.8
				s0.6,0.3,1,0.3c0.4,0.1,1,0.1,1.8,0.1c0.3,0,0.7,0,1.2,0s0.9,0,1.3-0.1c0.4,0,0.7-0.1,1.1-0.2c0.4-0.1,0.7-0.2,0.8-0.4
				c0.4-0.5,0.9-1.1,1.4-2.1c0.5-0.9,0.8-1.6,0.9-2h1.1V139z"/>
			<path class="st0" d="M490.1,135.7c0.6,0.4,1.1,0.9,1.5,1.6c0.4,0.6,0.6,1.4,0.6,2.2c0,1-0.2,1.9-0.6,2.6c-0.4,0.7-1,1.3-1.8,1.7
				s-1.8,0.7-2.9,0.9s-2.4,0.3-3.9,0.3h-10.4v-1.1c0.3,0,0.7-0.1,1.1-0.1c0.4-0.1,0.8-0.1,0.9-0.2c0.3-0.1,0.6-0.3,0.7-0.6
				s0.2-0.5,0.2-0.9v-14.2c0-0.3-0.1-0.6-0.2-0.8s-0.4-0.4-0.7-0.6c-0.3-0.1-0.6-0.2-1-0.3c-0.4-0.1-0.7-0.1-1-0.2v-1.1h10.9
				c2.7,0,4.7,0.4,5.9,1.1c1.2,0.8,1.8,1.9,1.8,3.3c0,0.7-0.1,1.3-0.4,1.8s-0.7,1-1.2,1.3s-1,0.7-1.7,0.9c-0.6,0.3-1.3,0.5-2.1,0.6
				v0.3c0.7,0.1,1.5,0.2,2.3,0.5S489.5,135.3,490.1,135.7z M485.5,129.6c0-1.1-0.3-2-0.9-2.6s-1.6-0.9-2.8-0.9c-0.2,0-0.4,0-0.7,0
				c-0.3,0-0.5,0-0.7,0v7.4h0.7c1.5,0,2.7-0.4,3.4-1.1C485.2,131.8,485.5,130.8,485.5,129.6z M486.5,139.3c0-1.4-0.4-2.5-1.2-3.2
				s-2-1.1-3.6-1.1c-0.2,0-0.4,0-0.7,0c-0.3,0-0.5,0-0.7,0v7.4c0.1,0.3,0.3,0.6,0.8,0.9c0.4,0.2,1,0.4,1.6,0.4c1.1,0,2-0.4,2.7-1.1
				S486.5,140.6,486.5,139.3z"/>
			<path class="st0" d="M533.6,138.4l-0.4,6.4h-18.5v-1.1c0.3,0,0.7-0.1,1.2-0.1c0.4-0.1,0.7-0.1,0.9-0.2c0.3-0.1,0.6-0.3,0.7-0.6
				c0.1-0.2,0.2-0.5,0.2-0.9v-14.2c0-0.3-0.1-0.6-0.2-0.8s-0.4-0.4-0.8-0.6c-0.3-0.1-0.6-0.2-1.1-0.3c-0.4-0.1-0.7-0.1-1-0.2v-1.1
				h11v1.1c-0.3,0-0.7,0.1-1.1,0.1s-0.8,0.1-1.1,0.2c-0.4,0.1-0.6,0.3-0.7,0.6c-0.1,0.3-0.2,0.6-0.2,0.9v13.2c0,0.6,0,1.1,0.1,1.5
				s0.3,0.6,0.5,0.8s0.6,0.3,1,0.3c0.4,0.1,1,0.1,1.8,0.1s1.5,0,2.2-0.1s1.2-0.3,1.5-0.6c0.5-0.5,1-1.2,1.5-2s0.9-1.7,1.2-2.4
				L533.6,138.4L533.6,138.4z"/>
			<path class="st0" d="M573.5,127c1,0.9,1.8,2,2.4,3.3c0.6,1.3,0.9,2.7,0.9,4.4c0,1.5-0.2,2.9-0.7,4.2s-1.2,2.5-2.1,3.4
				c-1,1-2.1,1.8-3.4,2.3c-1.3,0.6-2.9,0.8-4.7,0.8c-1.5,0-2.8-0.2-4.1-0.7s-2.4-1.2-3.4-2.1c-1-0.9-1.8-2-2.3-3.3s-0.9-2.7-0.9-4.3
				s0.3-3.1,0.8-4.5c0.6-1.3,1.3-2.5,2.3-3.4s2.1-1.7,3.5-2.2s2.8-0.8,4.3-0.8s2.9,0.2,4.2,0.7C571.4,125.5,572.5,126.2,573.5,127z
				 M569.8,141.4c0.4-0.9,0.7-1.8,0.9-2.9c0.2-1.1,0.3-2.3,0.3-3.7c0-1.2-0.1-2.3-0.2-3.4c-0.2-1.1-0.4-2.1-0.8-2.9
				c-0.4-0.9-0.9-1.5-1.6-2.1c-0.7-0.5-1.5-0.8-2.5-0.8c-1.7,0-3,0.8-3.9,2.4c-0.9,1.6-1.3,3.9-1.3,6.9c0,1.3,0.1,2.4,0.3,3.6
				c0.2,1.1,0.5,2.1,0.9,2.9c0.4,0.8,1,1.5,1.6,2c0.7,0.5,1.5,0.7,2.4,0.7s1.7-0.2,2.4-0.7C568.9,142.9,569.4,142.2,569.8,141.4z"/>
			<path class="st0" d="M621.4,136.7c-0.3,0-0.6,0.1-0.8,0.1s-0.5,0.1-0.8,0.2c-0.4,0.1-0.6,0.3-0.8,0.6s-0.2,0.6-0.2,0.9v2.3
				c0,0.5,0,0.9,0,1.1s0,0.6,0,1.1c-0.9,0.6-2.3,1.1-4.2,1.6c-1.8,0.5-3.5,0.7-5.1,0.7c-1.5,0-2.8-0.2-4.1-0.7
				c-1.3-0.4-2.4-1.1-3.4-2s-1.7-2-2.3-3.3s-0.8-2.8-0.8-4.5c0-1.6,0.3-3,0.8-4.3s1.3-2.5,2.2-3.4c1-1,2.1-1.7,3.5-2.2
				s2.9-0.8,4.6-0.8c1.1,0,2.2,0.1,3.2,0.4s1.8,0.6,2.4,0.9l0.9-0.8h1.2l0.1,7.3h-1.2c-0.7-2.2-1.6-3.8-2.6-4.9
				c-1-1.1-2.3-1.6-3.8-1.6c-1.8,0-3.2,0.8-4.2,2.4c-1,1.6-1.5,3.8-1.5,6.6c0,3,0.5,5.3,1.5,6.9s2.3,2.5,4.1,2.5
				c0.8,0,1.6-0.1,2.2-0.4c0.6-0.2,1.1-0.5,1.5-0.9v-4.1c0-0.3-0.1-0.6-0.2-0.9c-0.1-0.2-0.4-0.4-0.7-0.6c-0.3-0.1-0.6-0.2-1.1-0.3
				s-0.8-0.1-1.1-0.2v-1.1h10.4v1.4H621.4z"/>
		</g>
	</g>
</g>
</svg>
